<svg xmlns="http://www.w3.org/2000/svg" xmlns:xlink="http://www.w3.org/1999/xlink" width="500" zoomAndPan="magnify" viewBox="0 0 375 374.999991" height="500" preserveAspectRatio="xMidYMid meet" version="1.0"><defs><g/><clipPath id="f0ff19a8cd"><path d="M 112.5 109.699219 L 262.5 109.699219 L 262.5 206.449219 L 112.5 206.449219 Z M 112.5 109.699219 " clip-rule="nonzero"/></clipPath><clipPath id="55f4ca6952"><path d="M 130 180 L 228 180 L 228 206.449219 L 130 206.449219 Z M 130 180 " clip-rule="nonzero"/></clipPath><clipPath id="0d019eb3cd"><path d="M 112.5 153 L 139 153 L 139 198 L 112.5 198 Z M 112.5 153 " clip-rule="nonzero"/></clipPath><clipPath id="02d245a6b2"><path d="M 183 109.699219 L 192 109.699219 L 192 137 L 183 137 Z M 183 109.699219 " clip-rule="nonzero"/></clipPath><clipPath id="827b221664"><path d="M 236 109.699219 L 245 109.699219 L 245 119 L 236 119 Z M 236 109.699219 " clip-rule="nonzero"/></clipPath><clipPath id="506ad1510b"><path d="M 253 136 L 262.5 136 L 262.5 154 L 253 154 Z M 253 136 " clip-rule="nonzero"/></clipPath></defs><g clip-path="url(#f0ff19a8cd)"><path fill="#ffbbea" d="M 253.675781 136.183594 L 253.675781 109.714844 L 236.03125 109.714844 L 236.03125 118.535156 L 227.207031 118.535156 L 227.207031 127.359375 L 209.558594 127.359375 L 209.558594 118.535156 L 200.734375 118.535156 L 200.734375 109.714844 L 183.089844 109.714844 L 183.089844 136.183594 L 174.265625 136.183594 L 174.265625 153.832031 L 183.089844 153.832031 L 183.089844 162.652344 L 156.617188 162.652344 L 156.617188 171.476562 L 147.792969 171.476562 L 147.792969 180.300781 L 138.96875 180.300781 L 138.96875 162.652344 L 147.792969 162.652344 L 147.792969 153.832031 L 156.617188 153.832031 L 156.617188 145.007812 L 147.792969 145.007812 L 147.792969 136.183594 L 130.148438 136.183594 L 130.148438 145.007812 L 121.324219 145.007812 L 121.324219 153.832031 L 112.5 153.832031 L 112.5 189.125 L 121.324219 189.125 L 121.324219 197.949219 L 130.148438 197.949219 L 130.148438 206.773438 L 227.207031 206.773438 L 227.207031 197.949219 L 236.03125 197.949219 L 236.03125 189.125 L 227.207031 189.125 L 227.207031 180.300781 L 236.03125 180.300781 L 236.03125 171.476562 L 244.851562 171.476562 L 244.851562 162.652344 L 253.675781 162.652344 L 253.675781 153.832031 L 262.5 153.832031 L 262.5 136.183594 Z M 253.675781 136.183594 " fill-opacity="1" fill-rule="nonzero"/></g><path fill="#2db5f8" d="M 165.441406 180.300781 L 183.089844 180.300781 L 183.089844 189.125 L 165.441406 189.125 Z M 165.441406 180.300781 " fill-opacity="1" fill-rule="nonzero"/><path fill="#2db5f8" d="M 183.089844 189.125 L 191.910156 189.125 L 191.910156 197.949219 L 183.089844 197.949219 Z M 183.089844 189.125 " fill-opacity="1" fill-rule="nonzero"/><path fill="#2db5f8" d="M 130.148438 136.183594 L 147.792969 136.183594 L 147.792969 145.007812 L 130.148438 145.007812 Z M 130.148438 136.183594 " fill-opacity="1" fill-rule="nonzero"/><path fill="#2db5f8" d="M 147.792969 145.007812 L 156.617188 145.007812 L 156.617188 153.832031 L 147.792969 153.832031 Z M 147.792969 145.007812 " fill-opacity="1" fill-rule="nonzero"/><path fill="#2db5f8" d="M 227.207031 189.125 L 236.03125 189.125 L 236.03125 197.949219 L 227.207031 197.949219 Z M 227.207031 189.125 " fill-opacity="1" fill-rule="nonzero"/><path fill="#e24795" d="M 200.734375 153.832031 L 209.558594 153.832031 L 209.558594 162.652344 L 200.734375 162.652344 Z M 200.734375 153.832031 " fill-opacity="1" fill-rule="nonzero"/><path fill="#e24795" d="M 227.207031 153.832031 L 236.03125 153.832031 L 236.03125 162.652344 L 227.207031 162.652344 Z M 227.207031 153.832031 " fill-opacity="1" fill-rule="nonzero"/><path fill="#5211ba" d="M 200.734375 145.007812 L 209.558594 145.007812 L 209.558594 153.832031 L 200.734375 153.832031 Z M 200.734375 145.007812 " fill-opacity="1" fill-rule="nonzero"/><path fill="#5211ba" d="M 227.207031 145.007812 L 236.03125 145.007812 L 236.03125 153.832031 L 227.207031 153.832031 Z M 227.207031 145.007812 " fill-opacity="1" fill-rule="nonzero"/><path fill="#5211ba" d="M 183.089844 153.832031 L 191.910156 153.832031 L 191.910156 162.652344 L 183.089844 162.652344 Z M 183.089844 153.832031 " fill-opacity="1" fill-rule="nonzero"/><path fill="#5211ba" d="M 191.910156 162.652344 L 200.734375 162.652344 L 200.734375 171.476562 L 191.910156 171.476562 Z M 191.910156 162.652344 " fill-opacity="1" fill-rule="nonzero"/><path fill="#5211ba" d="M 200.734375 171.476562 L 236.03125 171.476562 L 236.03125 180.300781 L 200.734375 180.300781 Z M 200.734375 171.476562 " fill-opacity="1" fill-rule="nonzero"/><g clip-path="url(#55f4ca6952)"><path fill="#5211ba" d="M 147.792969 180.300781 L 138.96875 180.300781 L 138.96875 197.949219 L 130.148438 197.949219 L 130.148438 206.773438 L 227.207031 206.773438 L 227.207031 197.949219 L 147.792969 197.949219 Z M 147.792969 180.300781 " fill-opacity="1" fill-rule="nonzero"/></g><path fill="#5211ba" d="M 236.03125 162.652344 L 244.851562 162.652344 L 244.851562 171.476562 L 236.03125 171.476562 Z M 236.03125 162.652344 " fill-opacity="1" fill-rule="nonzero"/><path fill="#5211ba" d="M 244.851562 153.832031 L 253.675781 153.832031 L 253.675781 162.652344 L 244.851562 162.652344 Z M 244.851562 153.832031 " fill-opacity="1" fill-rule="nonzero"/><path fill="#9f8fff" d="M 156.617188 171.476562 L 147.792969 171.476562 L 147.792969 197.949219 L 183.089844 197.949219 L 183.089844 189.125 L 156.617188 189.125 Z M 156.617188 171.476562 " fill-opacity="1" fill-rule="nonzero"/><g clip-path="url(#0d019eb3cd)"><path fill="#9f8fff" d="M 130.148438 180.300781 L 121.324219 180.300781 L 121.324219 171.476562 L 130.148438 171.476562 L 130.148438 162.652344 L 121.324219 162.652344 L 121.324219 153.832031 L 112.5 153.832031 L 112.5 189.125 L 121.324219 189.125 L 121.324219 197.949219 L 138.96875 197.949219 L 138.96875 189.125 L 130.148438 189.125 Z M 130.148438 180.300781 " fill-opacity="1" fill-rule="nonzero"/></g><path fill="#9f8fff" d="M 121.324219 145.007812 L 130.148438 145.007812 L 130.148438 153.832031 L 121.324219 153.832031 Z M 121.324219 145.007812 " fill-opacity="1" fill-rule="nonzero"/><path fill="#9f8fff" d="M 138.96875 153.832031 L 147.792969 153.832031 L 147.792969 162.652344 L 138.96875 162.652344 Z M 138.96875 153.832031 " fill-opacity="1" fill-rule="nonzero"/><path fill="#9f8fff" d="M 191.910156 153.832031 L 200.734375 153.832031 L 200.734375 162.652344 L 191.910156 162.652344 Z M 191.910156 153.832031 " fill-opacity="1" fill-rule="nonzero"/><path fill="#9f8fff" d="M 236.03125 153.832031 L 244.851562 153.832031 L 244.851562 162.652344 L 236.03125 162.652344 Z M 236.03125 153.832031 " fill-opacity="1" fill-rule="nonzero"/><path fill="#9f8fff" d="M 200.734375 162.652344 L 236.03125 162.652344 L 236.03125 171.476562 L 200.734375 171.476562 Z M 200.734375 162.652344 " fill-opacity="1" fill-rule="nonzero"/><path fill="#9f8fff" d="M 183.089844 145.007812 L 183.089844 136.183594 L 174.265625 136.183594 L 174.265625 153.832031 L 191.910156 153.832031 L 191.910156 145.007812 Z M 183.089844 145.007812 " fill-opacity="1" fill-rule="nonzero"/><g clip-path="url(#02d245a6b2)"><path fill="#9f8fff" d="M 183.089844 109.714844 L 191.910156 109.714844 L 191.910156 136.183594 L 183.089844 136.183594 Z M 183.089844 109.714844 " fill-opacity="1" fill-rule="nonzero"/></g><path fill="#9f8fff" d="M 227.207031 118.535156 L 236.03125 118.535156 L 236.03125 127.359375 L 227.207031 127.359375 Z M 227.207031 118.535156 " fill-opacity="1" fill-rule="nonzero"/><g clip-path="url(#827b221664)"><path fill="#9f8fff" d="M 236.03125 109.714844 L 244.851562 109.714844 L 244.851562 118.535156 L 236.03125 118.535156 Z M 236.03125 109.714844 " fill-opacity="1" fill-rule="nonzero"/></g><path fill="#9f8fff" d="M 218.382812 180.300781 L 227.207031 180.300781 L 227.207031 197.949219 L 218.382812 197.949219 Z M 218.382812 180.300781 " fill-opacity="1" fill-rule="nonzero"/><path fill="#2db5f8" d="M 227.207031 118.535156 L 236.03125 118.535156 L 236.03125 127.359375 L 227.207031 127.359375 Z M 227.207031 118.535156 " fill-opacity="1" fill-rule="nonzero"/><g clip-path="url(#506ad1510b)"><path fill="#2db5f8" d="M 253.675781 136.183594 L 262.5 136.183594 L 262.5 153.832031 L 253.675781 153.832031 Z M 253.675781 136.183594 " fill-opacity="1" fill-rule="nonzero"/></g><g fill="#ff00ff" fill-opacity="1"><g transform="translate(121.589008, 237.97874)"><g><path d="M 15.265625 0 L 8.46875 0 C 6.144531 0 4.421875 -0.460938 3.296875 -1.390625 C 2.171875 -2.316406 1.609375 -3.75 1.609375 -5.6875 L 1.609375 -14.34375 C 1.609375 -16.269531 2.171875 -17.703125 3.296875 -18.640625 C 4.421875 -19.578125 6.144531 -20.046875 8.46875 -20.046875 L 15.265625 -20.046875 C 15.609375 -20.046875 15.859375 -19.96875 16.015625 -19.8125 C 16.179688 -19.65625 16.265625 -19.398438 16.265625 -19.046875 L 16.265625 -15.671875 C 16.265625 -15.316406 16.179688 -15.0625 16.015625 -14.90625 C 15.859375 -14.75 15.609375 -14.671875 15.265625 -14.671875 L 9.65625 -14.671875 C 9.082031 -14.671875 8.65625 -14.554688 8.375 -14.328125 C 8.101562 -14.097656 7.96875 -13.75 7.96875 -13.28125 L 7.96875 -6.65625 C 7.96875 -6.1875 8.101562 -5.84375 8.375 -5.625 C 8.65625 -5.414062 9.082031 -5.3125 9.65625 -5.3125 L 15.265625 -5.3125 C 15.609375 -5.3125 15.859375 -5.234375 16.015625 -5.078125 C 16.179688 -4.921875 16.265625 -4.664062 16.265625 -4.3125 L 16.265625 -1 C 16.265625 -0.644531 16.179688 -0.390625 16.015625 -0.234375 C 15.859375 -0.078125 15.609375 0 15.265625 0 Z M 15.265625 0 "/></g></g></g><g fill="#ff00ff" fill-opacity="1"><g transform="translate(139.075529, 237.97874)"><g><path d="M 9.1875 -14.203125 L 7.875 -9.96875 L 12.25 -9.96875 L 10.9375 -14.203125 C 10.863281 -14.367188 10.785156 -14.488281 10.703125 -14.5625 C 10.617188 -14.632812 10.519531 -14.671875 10.40625 -14.671875 L 9.71875 -14.671875 C 9.601562 -14.671875 9.503906 -14.632812 9.421875 -14.5625 C 9.335938 -14.488281 9.257812 -14.367188 9.1875 -14.203125 Z M 7.59375 -1 C 7.59375 -0.644531 7.515625 -0.390625 7.359375 -0.234375 C 7.203125 -0.078125 6.945312 0 6.59375 0 L 2.5 0 C 2.15625 0 1.898438 -0.078125 1.734375 -0.234375 C 1.578125 -0.390625 1.5 -0.644531 1.5 -1 L 1.5 -8.359375 C 1.5 -8.910156 1.585938 -9.546875 1.765625 -10.265625 C 1.941406 -10.992188 2.21875 -11.84375 2.59375 -12.8125 L 5.015625 -19.125 C 5.117188 -19.445312 5.285156 -19.679688 5.515625 -19.828125 C 5.753906 -19.972656 6.0625 -20.046875 6.4375 -20.046875 L 13.921875 -20.046875 C 14.273438 -20.046875 14.566406 -19.972656 14.796875 -19.828125 C 15.023438 -19.679688 15.195312 -19.445312 15.3125 -19.125 L 17.734375 -12.8125 C 18.109375 -11.84375 18.382812 -10.992188 18.5625 -10.265625 C 18.738281 -9.546875 18.828125 -8.910156 18.828125 -8.359375 L 18.828125 -1 C 18.828125 -0.644531 18.742188 -0.390625 18.578125 -0.234375 C 18.421875 -0.078125 18.164062 0 17.8125 0 L 13.609375 0 C 13.242188 0 12.972656 -0.078125 12.796875 -0.234375 C 12.617188 -0.390625 12.53125 -0.644531 12.53125 -1 L 12.53125 -4.90625 L 7.59375 -4.90625 Z M 7.59375 -1 "/></g></g></g><g fill="#ff00ff" fill-opacity="1"><g transform="translate(159.402221, 237.97874)"><g><path d="M 11.390625 0 L 6.875 0 C 6.519531 0 6.265625 -0.078125 6.109375 -0.234375 C 5.953125 -0.390625 5.875 -0.644531 5.875 -1 L 5.875 -14.671875 L 1.78125 -14.671875 C 1.425781 -14.671875 1.171875 -14.75 1.015625 -14.90625 C 0.859375 -15.0625 0.78125 -15.316406 0.78125 -15.671875 L 0.78125 -19.046875 C 0.78125 -19.398438 0.859375 -19.65625 1.015625 -19.8125 C 1.171875 -19.96875 1.425781 -20.046875 1.78125 -20.046875 L 16.484375 -20.046875 C 16.835938 -20.046875 17.09375 -19.96875 17.25 -19.8125 C 17.40625 -19.65625 17.484375 -19.398438 17.484375 -19.046875 L 17.484375 -15.671875 C 17.484375 -15.316406 17.40625 -15.0625 17.25 -14.90625 C 17.09375 -14.75 16.835938 -14.671875 16.484375 -14.671875 L 12.390625 -14.671875 L 12.390625 -1 C 12.390625 -0.644531 12.3125 -0.390625 12.15625 -0.234375 C 12 -0.078125 11.742188 0 11.390625 0 Z M 11.390625 0 "/></g></g></g><g fill="#ff00ff" fill-opacity="1"><g transform="translate(177.6684, 237.97874)"><g><path d="M 15.265625 0 L 8.46875 0 C 6.144531 0 4.421875 -0.460938 3.296875 -1.390625 C 2.171875 -2.316406 1.609375 -3.75 1.609375 -5.6875 L 1.609375 -14.34375 C 1.609375 -16.269531 2.171875 -17.703125 3.296875 -18.640625 C 4.421875 -19.578125 6.144531 -20.046875 8.46875 -20.046875 L 15.265625 -20.046875 C 15.609375 -20.046875 15.859375 -19.96875 16.015625 -19.8125 C 16.179688 -19.65625 16.265625 -19.398438 16.265625 -19.046875 L 16.265625 -15.671875 C 16.265625 -15.316406 16.179688 -15.0625 16.015625 -14.90625 C 15.859375 -14.75 15.609375 -14.671875 15.265625 -14.671875 L 9.65625 -14.671875 C 9.082031 -14.671875 8.65625 -14.554688 8.375 -14.328125 C 8.101562 -14.097656 7.96875 -13.75 7.96875 -13.28125 L 7.96875 -6.65625 C 7.96875 -6.1875 8.101562 -5.84375 8.375 -5.625 C 8.65625 -5.414062 9.082031 -5.3125 9.65625 -5.3125 L 15.265625 -5.3125 C 15.609375 -5.3125 15.859375 -5.234375 16.015625 -5.078125 C 16.179688 -4.921875 16.265625 -4.664062 16.265625 -4.3125 L 16.265625 -1 C 16.265625 -0.644531 16.179688 -0.390625 16.015625 -0.234375 C 15.859375 -0.078125 15.609375 0 15.265625 0 Z M 15.265625 0 "/></g></g></g><g fill="#ff00ff" fill-opacity="1"><g transform="translate(195.154919, 237.97874)"><g><path d="M 9.1875 -14.203125 L 7.875 -9.96875 L 12.25 -9.96875 L 10.9375 -14.203125 C 10.863281 -14.367188 10.785156 -14.488281 10.703125 -14.5625 C 10.617188 -14.632812 10.519531 -14.671875 10.40625 -14.671875 L 9.71875 -14.671875 C 9.601562 -14.671875 9.503906 -14.632812 9.421875 -14.5625 C 9.335938 -14.488281 9.257812 -14.367188 9.1875 -14.203125 Z M 7.59375 -1 C 7.59375 -0.644531 7.515625 -0.390625 7.359375 -0.234375 C 7.203125 -0.078125 6.945312 0 6.59375 0 L 2.5 0 C 2.15625 0 1.898438 -0.078125 1.734375 -0.234375 C 1.578125 -0.390625 1.5 -0.644531 1.5 -1 L 1.5 -8.359375 C 1.5 -8.910156 1.585938 -9.546875 1.765625 -10.265625 C 1.941406 -10.992188 2.21875 -11.84375 2.59375 -12.8125 L 5.015625 -19.125 C 5.117188 -19.445312 5.285156 -19.679688 5.515625 -19.828125 C 5.753906 -19.972656 6.0625 -20.046875 6.4375 -20.046875 L 13.921875 -20.046875 C 14.273438 -20.046875 14.566406 -19.972656 14.796875 -19.828125 C 15.023438 -19.679688 15.195312 -19.445312 15.3125 -19.125 L 17.734375 -12.8125 C 18.109375 -11.84375 18.382812 -10.992188 18.5625 -10.265625 C 18.738281 -9.546875 18.828125 -8.910156 18.828125 -8.359375 L 18.828125 -1 C 18.828125 -0.644531 18.742188 -0.390625 18.578125 -0.234375 C 18.421875 -0.078125 18.164062 0 17.8125 0 L 13.609375 0 C 13.242188 0 12.972656 -0.078125 12.796875 -0.234375 C 12.617188 -0.390625 12.53125 -0.644531 12.53125 -1 L 12.53125 -4.90625 L 7.59375 -4.90625 Z M 7.59375 -1 "/></g></g></g><g fill="#ff00ff" fill-opacity="1"><g transform="translate(215.481604, 237.97874)"><g><path d="M 11.390625 0 L 6.875 0 C 6.519531 0 6.265625 -0.078125 6.109375 -0.234375 C 5.953125 -0.390625 5.875 -0.644531 5.875 -1 L 5.875 -14.671875 L 1.78125 -14.671875 C 1.425781 -14.671875 1.171875 -14.75 1.015625 -14.90625 C 0.859375 -15.0625 0.78125 -15.316406 0.78125 -15.671875 L 0.78125 -19.046875 C 0.78125 -19.398438 0.859375 -19.65625 1.015625 -19.8125 C 1.171875 -19.96875 1.425781 -20.046875 1.78125 -20.046875 L 16.484375 -20.046875 C 16.835938 -20.046875 17.09375 -19.96875 17.25 -19.8125 C 17.40625 -19.65625 17.484375 -19.398438 17.484375 -19.046875 L 17.484375 -15.671875 C 17.484375 -15.316406 17.40625 -15.0625 17.25 -14.90625 C 17.09375 -14.75 16.835938 -14.671875 16.484375 -14.671875 L 12.390625 -14.671875 L 12.390625 -1 C 12.390625 -0.644531 12.3125 -0.390625 12.15625 -0.234375 C 12 -0.078125 11.742188 0 11.390625 0 Z M 11.390625 0 "/></g></g></g><g fill="#ff00ff" fill-opacity="1"><g transform="translate(233.747783, 237.97874)"><g><path d="M 15.84375 0 L 2.921875 0 C 2.566406 0 2.3125 -0.078125 2.15625 -0.234375 C 2 -0.390625 1.921875 -0.644531 1.921875 -1 L 1.921875 -19.046875 C 1.921875 -19.398438 2 -19.65625 2.15625 -19.8125 C 2.3125 -19.96875 2.566406 -20.046875 2.921875 -20.046875 L 15.84375 -20.046875 C 16.195312 -20.046875 16.453125 -19.96875 16.609375 -19.8125 C 16.765625 -19.65625 16.84375 -19.398438 16.84375 -19.046875 L 16.84375 -15.78125 C 16.84375 -15.4375 16.765625 -15.179688 16.609375 -15.015625 C 16.453125 -14.859375 16.195312 -14.78125 15.84375 -14.78125 L 8.15625 -14.78125 L 8.15625 -12.640625 L 13.59375 -12.640625 C 13.9375 -12.640625 14.1875 -12.5625 14.34375 -12.40625 C 14.507812 -12.25 14.59375 -11.992188 14.59375 -11.640625 L 14.59375 -8.65625 C 14.59375 -8.300781 14.507812 -8.046875 14.34375 -7.890625 C 14.1875 -7.734375 13.9375 -7.65625 13.59375 -7.65625 L 8.15625 -7.65625 L 8.15625 -5.265625 L 15.84375 -5.265625 C 16.195312 -5.265625 16.453125 -5.1875 16.609375 -5.03125 C 16.765625 -4.875 16.84375 -4.617188 16.84375 -4.265625 L 16.84375 -1 C 16.84375 -0.644531 16.765625 -0.390625 16.609375 -0.234375 C 16.453125 -0.078125 16.195312 0 15.84375 0 Z M 15.84375 0 "/></g></g></g><g fill="#00ffff" fill-opacity="1"><g transform="translate(123.039966, 236.625692)"><g><path d="M 15.265625 0 L 8.46875 0 C 6.144531 0 4.421875 -0.460938 3.296875 -1.390625 C 2.171875 -2.316406 1.609375 -3.75 1.609375 -5.6875 L 1.609375 -14.34375 C 1.609375 -16.269531 2.171875 -17.703125 3.296875 -18.640625 C 4.421875 -19.578125 6.144531 -20.046875 8.46875 -20.046875 L 15.265625 -20.046875 C 15.609375 -20.046875 15.859375 -19.96875 16.015625 -19.8125 C 16.179688 -19.65625 16.265625 -19.398438 16.265625 -19.046875 L 16.265625 -15.671875 C 16.265625 -15.316406 16.179688 -15.0625 16.015625 -14.90625 C 15.859375 -14.75 15.609375 -14.671875 15.265625 -14.671875 L 9.65625 -14.671875 C 9.082031 -14.671875 8.65625 -14.554688 8.375 -14.328125 C 8.101562 -14.097656 7.96875 -13.75 7.96875 -13.28125 L 7.96875 -6.65625 C 7.96875 -6.1875 8.101562 -5.84375 8.375 -5.625 C 8.65625 -5.414062 9.082031 -5.3125 9.65625 -5.3125 L 15.265625 -5.3125 C 15.609375 -5.3125 15.859375 -5.234375 16.015625 -5.078125 C 16.179688 -4.921875 16.265625 -4.664062 16.265625 -4.3125 L 16.265625 -1 C 16.265625 -0.644531 16.179688 -0.390625 16.015625 -0.234375 C 15.859375 -0.078125 15.609375 0 15.265625 0 Z M 15.265625 0 "/></g></g></g><g fill="#00ffff" fill-opacity="1"><g transform="translate(140.526487, 236.625692)"><g><path d="M 9.1875 -14.203125 L 7.875 -9.96875 L 12.25 -9.96875 L 10.9375 -14.203125 C 10.863281 -14.367188 10.785156 -14.488281 10.703125 -14.5625 C 10.617188 -14.632812 10.519531 -14.671875 10.40625 -14.671875 L 9.71875 -14.671875 C 9.601562 -14.671875 9.503906 -14.632812 9.421875 -14.5625 C 9.335938 -14.488281 9.257812 -14.367188 9.1875 -14.203125 Z M 7.59375 -1 C 7.59375 -0.644531 7.515625 -0.390625 7.359375 -0.234375 C 7.203125 -0.078125 6.945312 0 6.59375 0 L 2.5 0 C 2.15625 0 1.898438 -0.078125 1.734375 -0.234375 C 1.578125 -0.390625 1.5 -0.644531 1.5 -1 L 1.5 -8.359375 C 1.5 -8.910156 1.585938 -9.546875 1.765625 -10.265625 C 1.941406 -10.992188 2.21875 -11.84375 2.59375 -12.8125 L 5.015625 -19.125 C 5.117188 -19.445312 5.285156 -19.679688 5.515625 -19.828125 C 5.753906 -19.972656 6.0625 -20.046875 6.4375 -20.046875 L 13.921875 -20.046875 C 14.273438 -20.046875 14.566406 -19.972656 14.796875 -19.828125 C 15.023438 -19.679688 15.195312 -19.445312 15.3125 -19.125 L 17.734375 -12.8125 C 18.109375 -11.84375 18.382812 -10.992188 18.5625 -10.265625 C 18.738281 -9.546875 18.828125 -8.910156 18.828125 -8.359375 L 18.828125 -1 C 18.828125 -0.644531 18.742188 -0.390625 18.578125 -0.234375 C 18.421875 -0.078125 18.164062 0 17.8125 0 L 13.609375 0 C 13.242188 0 12.972656 -0.078125 12.796875 -0.234375 C 12.617188 -0.390625 12.53125 -0.644531 12.53125 -1 L 12.53125 -4.90625 L 7.59375 -4.90625 Z M 7.59375 -1 "/></g></g></g><g fill="#00ffff" fill-opacity="1"><g transform="translate(160.85318, 236.625692)"><g><path d="M 11.390625 0 L 6.875 0 C 6.519531 0 6.265625 -0.078125 6.109375 -0.234375 C 5.953125 -0.390625 5.875 -0.644531 5.875 -1 L 5.875 -14.671875 L 1.78125 -14.671875 C 1.425781 -14.671875 1.171875 -14.75 1.015625 -14.90625 C 0.859375 -15.0625 0.78125 -15.316406 0.78125 -15.671875 L 0.78125 -19.046875 C 0.78125 -19.398438 0.859375 -19.65625 1.015625 -19.8125 C 1.171875 -19.96875 1.425781 -20.046875 1.78125 -20.046875 L 16.484375 -20.046875 C 16.835938 -20.046875 17.09375 -19.96875 17.25 -19.8125 C 17.40625 -19.65625 17.484375 -19.398438 17.484375 -19.046875 L 17.484375 -15.671875 C 17.484375 -15.316406 17.40625 -15.0625 17.25 -14.90625 C 17.09375 -14.75 16.835938 -14.671875 16.484375 -14.671875 L 12.390625 -14.671875 L 12.390625 -1 C 12.390625 -0.644531 12.3125 -0.390625 12.15625 -0.234375 C 12 -0.078125 11.742188 0 11.390625 0 Z M 11.390625 0 "/></g></g></g><g fill="#00ffff" fill-opacity="1"><g transform="translate(179.119358, 236.625692)"><g><path d="M 15.265625 0 L 8.46875 0 C 6.144531 0 4.421875 -0.460938 3.296875 -1.390625 C 2.171875 -2.316406 1.609375 -3.75 1.609375 -5.6875 L 1.609375 -14.34375 C 1.609375 -16.269531 2.171875 -17.703125 3.296875 -18.640625 C 4.421875 -19.578125 6.144531 -20.046875 8.46875 -20.046875 L 15.265625 -20.046875 C 15.609375 -20.046875 15.859375 -19.96875 16.015625 -19.8125 C 16.179688 -19.65625 16.265625 -19.398438 16.265625 -19.046875 L 16.265625 -15.671875 C 16.265625 -15.316406 16.179688 -15.0625 16.015625 -14.90625 C 15.859375 -14.75 15.609375 -14.671875 15.265625 -14.671875 L 9.65625 -14.671875 C 9.082031 -14.671875 8.65625 -14.554688 8.375 -14.328125 C 8.101562 -14.097656 7.96875 -13.75 7.96875 -13.28125 L 7.96875 -6.65625 C 7.96875 -6.1875 8.101562 -5.84375 8.375 -5.625 C 8.65625 -5.414062 9.082031 -5.3125 9.65625 -5.3125 L 15.265625 -5.3125 C 15.609375 -5.3125 15.859375 -5.234375 16.015625 -5.078125 C 16.179688 -4.921875 16.265625 -4.664062 16.265625 -4.3125 L 16.265625 -1 C 16.265625 -0.644531 16.179688 -0.390625 16.015625 -0.234375 C 15.859375 -0.078125 15.609375 0 15.265625 0 Z M 15.265625 0 "/></g></g></g><g fill="#00ffff" fill-opacity="1"><g transform="translate(196.605877, 236.625692)"><g><path d="M 9.1875 -14.203125 L 7.875 -9.96875 L 12.25 -9.96875 L 10.9375 -14.203125 C 10.863281 -14.367188 10.785156 -14.488281 10.703125 -14.5625 C 10.617188 -14.632812 10.519531 -14.671875 10.40625 -14.671875 L 9.71875 -14.671875 C 9.601562 -14.671875 9.503906 -14.632812 9.421875 -14.5625 C 9.335938 -14.488281 9.257812 -14.367188 9.1875 -14.203125 Z M 7.59375 -1 C 7.59375 -0.644531 7.515625 -0.390625 7.359375 -0.234375 C 7.203125 -0.078125 6.945312 0 6.59375 0 L 2.5 0 C 2.15625 0 1.898438 -0.078125 1.734375 -0.234375 C 1.578125 -0.390625 1.5 -0.644531 1.5 -1 L 1.5 -8.359375 C 1.5 -8.910156 1.585938 -9.546875 1.765625 -10.265625 C 1.941406 -10.992188 2.21875 -11.84375 2.59375 -12.8125 L 5.015625 -19.125 C 5.117188 -19.445312 5.285156 -19.679688 5.515625 -19.828125 C 5.753906 -19.972656 6.0625 -20.046875 6.4375 -20.046875 L 13.921875 -20.046875 C 14.273438 -20.046875 14.566406 -19.972656 14.796875 -19.828125 C 15.023438 -19.679688 15.195312 -19.445312 15.3125 -19.125 L 17.734375 -12.8125 C 18.109375 -11.84375 18.382812 -10.992188 18.5625 -10.265625 C 18.738281 -9.546875 18.828125 -8.910156 18.828125 -8.359375 L 18.828125 -1 C 18.828125 -0.644531 18.742188 -0.390625 18.578125 -0.234375 C 18.421875 -0.078125 18.164062 0 17.8125 0 L 13.609375 0 C 13.242188 0 12.972656 -0.078125 12.796875 -0.234375 C 12.617188 -0.390625 12.53125 -0.644531 12.53125 -1 L 12.53125 -4.90625 L 7.59375 -4.90625 Z M 7.59375 -1 "/></g></g></g><g fill="#00ffff" fill-opacity="1"><g transform="translate(216.932562, 236.625692)"><g><path d="M 11.390625 0 L 6.875 0 C 6.519531 0 6.265625 -0.078125 6.109375 -0.234375 C 5.953125 -0.390625 5.875 -0.644531 5.875 -1 L 5.875 -14.671875 L 1.78125 -14.671875 C 1.425781 -14.671875 1.171875 -14.75 1.015625 -14.90625 C 0.859375 -15.0625 0.78125 -15.316406 0.78125 -15.671875 L 0.78125 -19.046875 C 0.78125 -19.398438 0.859375 -19.65625 1.015625 -19.8125 C 1.171875 -19.96875 1.425781 -20.046875 1.78125 -20.046875 L 16.484375 -20.046875 C 16.835938 -20.046875 17.09375 -19.96875 17.25 -19.8125 C 17.40625 -19.65625 17.484375 -19.398438 17.484375 -19.046875 L 17.484375 -15.671875 C 17.484375 -15.316406 17.40625 -15.0625 17.25 -14.90625 C 17.09375 -14.75 16.835938 -14.671875 16.484375 -14.671875 L 12.390625 -14.671875 L 12.390625 -1 C 12.390625 -0.644531 12.3125 -0.390625 12.15625 -0.234375 C 12 -0.078125 11.742188 0 11.390625 0 Z M 11.390625 0 "/></g></g></g><g fill="#00ffff" fill-opacity="1"><g transform="translate(235.198741, 236.625692)"><g><path d="M 15.84375 0 L 2.921875 0 C 2.566406 0 2.3125 -0.078125 2.15625 -0.234375 C 2 -0.390625 1.921875 -0.644531 1.921875 -1 L 1.921875 -19.046875 C 1.921875 -19.398438 2 -19.65625 2.15625 -19.8125 C 2.3125 -19.96875 2.566406 -20.046875 2.921875 -20.046875 L 15.84375 -20.046875 C 16.195312 -20.046875 16.453125 -19.96875 16.609375 -19.8125 C 16.765625 -19.65625 16.84375 -19.398438 16.84375 -19.046875 L 16.84375 -15.78125 C 16.84375 -15.4375 16.765625 -15.179688 16.609375 -15.015625 C 16.453125 -14.859375 16.195312 -14.78125 15.84375 -14.78125 L 8.15625 -14.78125 L 8.15625 -12.640625 L 13.59375 -12.640625 C 13.9375 -12.640625 14.1875 -12.5625 14.34375 -12.40625 C 14.507812 -12.25 14.59375 -11.992188 14.59375 -11.640625 L 14.59375 -8.65625 C 14.59375 -8.300781 14.507812 -8.046875 14.34375 -7.890625 C 14.1875 -7.734375 13.9375 -7.65625 13.59375 -7.65625 L 8.15625 -7.65625 L 8.15625 -5.265625 L 15.84375 -5.265625 C 16.195312 -5.265625 16.453125 -5.1875 16.609375 -5.03125 C 16.765625 -4.875 16.84375 -4.617188 16.84375 -4.265625 L 16.84375 -1 C 16.84375 -0.644531 16.765625 -0.390625 16.609375 -0.234375 C 16.453125 -0.078125 16.195312 0 15.84375 0 Z M 15.84375 0 "/></g></g></g><g fill="#7843e6" fill-opacity="1"><g transform="translate(122.314487, 237.302216)"><g><path d="M 15.265625 0 L 8.46875 0 C 6.144531 0 4.421875 -0.460938 3.296875 -1.390625 C 2.171875 -2.316406 1.609375 -3.75 1.609375 -5.6875 L 1.609375 -14.34375 C 1.609375 -16.269531 2.171875 -17.703125 3.296875 -18.640625 C 4.421875 -19.578125 6.144531 -20.046875 8.46875 -20.046875 L 15.265625 -20.046875 C 15.609375 -20.046875 15.859375 -19.96875 16.015625 -19.8125 C 16.179688 -19.65625 16.265625 -19.398438 16.265625 -19.046875 L 16.265625 -15.671875 C 16.265625 -15.316406 16.179688 -15.0625 16.015625 -14.90625 C 15.859375 -14.75 15.609375 -14.671875 15.265625 -14.671875 L 9.65625 -14.671875 C 9.082031 -14.671875 8.65625 -14.554688 8.375 -14.328125 C 8.101562 -14.097656 7.96875 -13.75 7.96875 -13.28125 L 7.96875 -6.65625 C 7.96875 -6.1875 8.101562 -5.84375 8.375 -5.625 C 8.65625 -5.414062 9.082031 -5.3125 9.65625 -5.3125 L 15.265625 -5.3125 C 15.609375 -5.3125 15.859375 -5.234375 16.015625 -5.078125 C 16.179688 -4.921875 16.265625 -4.664062 16.265625 -4.3125 L 16.265625 -1 C 16.265625 -0.644531 16.179688 -0.390625 16.015625 -0.234375 C 15.859375 -0.078125 15.609375 0 15.265625 0 Z M 15.265625 0 "/></g></g></g><g fill="#7843e6" fill-opacity="1"><g transform="translate(139.801008, 237.302216)"><g><path d="M 9.1875 -14.203125 L 7.875 -9.96875 L 12.25 -9.96875 L 10.9375 -14.203125 C 10.863281 -14.367188 10.785156 -14.488281 10.703125 -14.5625 C 10.617188 -14.632812 10.519531 -14.671875 10.40625 -14.671875 L 9.71875 -14.671875 C 9.601562 -14.671875 9.503906 -14.632812 9.421875 -14.5625 C 9.335938 -14.488281 9.257812 -14.367188 9.1875 -14.203125 Z M 7.59375 -1 C 7.59375 -0.644531 7.515625 -0.390625 7.359375 -0.234375 C 7.203125 -0.078125 6.945312 0 6.59375 0 L 2.5 0 C 2.15625 0 1.898438 -0.078125 1.734375 -0.234375 C 1.578125 -0.390625 1.5 -0.644531 1.5 -1 L 1.5 -8.359375 C 1.5 -8.910156 1.585938 -9.546875 1.765625 -10.265625 C 1.941406 -10.992188 2.21875 -11.84375 2.59375 -12.8125 L 5.015625 -19.125 C 5.117188 -19.445312 5.285156 -19.679688 5.515625 -19.828125 C 5.753906 -19.972656 6.0625 -20.046875 6.4375 -20.046875 L 13.921875 -20.046875 C 14.273438 -20.046875 14.566406 -19.972656 14.796875 -19.828125 C 15.023438 -19.679688 15.195312 -19.445312 15.3125 -19.125 L 17.734375 -12.8125 C 18.109375 -11.84375 18.382812 -10.992188 18.5625 -10.265625 C 18.738281 -9.546875 18.828125 -8.910156 18.828125 -8.359375 L 18.828125 -1 C 18.828125 -0.644531 18.742188 -0.390625 18.578125 -0.234375 C 18.421875 -0.078125 18.164062 0 17.8125 0 L 13.609375 0 C 13.242188 0 12.972656 -0.078125 12.796875 -0.234375 C 12.617188 -0.390625 12.53125 -0.644531 12.53125 -1 L 12.53125 -4.90625 L 7.59375 -4.90625 Z M 7.59375 -1 "/></g></g></g><g fill="#7843e6" fill-opacity="1"><g transform="translate(160.1277, 237.302216)"><g><path d="M 11.390625 0 L 6.875 0 C 6.519531 0 6.265625 -0.078125 6.109375 -0.234375 C 5.953125 -0.390625 5.875 -0.644531 5.875 -1 L 5.875 -14.671875 L 1.78125 -14.671875 C 1.425781 -14.671875 1.171875 -14.75 1.015625 -14.90625 C 0.859375 -15.0625 0.78125 -15.316406 0.78125 -15.671875 L 0.78125 -19.046875 C 0.78125 -19.398438 0.859375 -19.65625 1.015625 -19.8125 C 1.171875 -19.96875 1.425781 -20.046875 1.78125 -20.046875 L 16.484375 -20.046875 C 16.835938 -20.046875 17.09375 -19.96875 17.25 -19.8125 C 17.40625 -19.65625 17.484375 -19.398438 17.484375 -19.046875 L 17.484375 -15.671875 C 17.484375 -15.316406 17.40625 -15.0625 17.25 -14.90625 C 17.09375 -14.75 16.835938 -14.671875 16.484375 -14.671875 L 12.390625 -14.671875 L 12.390625 -1 C 12.390625 -0.644531 12.3125 -0.390625 12.15625 -0.234375 C 12 -0.078125 11.742188 0 11.390625 0 Z M 11.390625 0 "/></g></g></g><g fill="#7843e6" fill-opacity="1"><g transform="translate(178.393879, 237.302216)"><g><path d="M 15.265625 0 L 8.46875 0 C 6.144531 0 4.421875 -0.460938 3.296875 -1.390625 C 2.171875 -2.316406 1.609375 -3.75 1.609375 -5.6875 L 1.609375 -14.34375 C 1.609375 -16.269531 2.171875 -17.703125 3.296875 -18.640625 C 4.421875 -19.578125 6.144531 -20.046875 8.46875 -20.046875 L 15.265625 -20.046875 C 15.609375 -20.046875 15.859375 -19.96875 16.015625 -19.8125 C 16.179688 -19.65625 16.265625 -19.398438 16.265625 -19.046875 L 16.265625 -15.671875 C 16.265625 -15.316406 16.179688 -15.0625 16.015625 -14.90625 C 15.859375 -14.75 15.609375 -14.671875 15.265625 -14.671875 L 9.65625 -14.671875 C 9.082031 -14.671875 8.65625 -14.554688 8.375 -14.328125 C 8.101562 -14.097656 7.96875 -13.75 7.96875 -13.28125 L 7.96875 -6.65625 C 7.96875 -6.1875 8.101562 -5.84375 8.375 -5.625 C 8.65625 -5.414062 9.082031 -5.3125 9.65625 -5.3125 L 15.265625 -5.3125 C 15.609375 -5.3125 15.859375 -5.234375 16.015625 -5.078125 C 16.179688 -4.921875 16.265625 -4.664062 16.265625 -4.3125 L 16.265625 -1 C 16.265625 -0.644531 16.179688 -0.390625 16.015625 -0.234375 C 15.859375 -0.078125 15.609375 0 15.265625 0 Z M 15.265625 0 "/></g></g></g><g fill="#7843e6" fill-opacity="1"><g transform="translate(195.880398, 237.302216)"><g><path d="M 9.1875 -14.203125 L 7.875 -9.96875 L 12.25 -9.96875 L 10.9375 -14.203125 C 10.863281 -14.367188 10.785156 -14.488281 10.703125 -14.5625 C 10.617188 -14.632812 10.519531 -14.671875 10.40625 -14.671875 L 9.71875 -14.671875 C 9.601562 -14.671875 9.503906 -14.632812 9.421875 -14.5625 C 9.335938 -14.488281 9.257812 -14.367188 9.1875 -14.203125 Z M 7.59375 -1 C 7.59375 -0.644531 7.515625 -0.390625 7.359375 -0.234375 C 7.203125 -0.078125 6.945312 0 6.59375 0 L 2.5 0 C 2.15625 0 1.898438 -0.078125 1.734375 -0.234375 C 1.578125 -0.390625 1.5 -0.644531 1.5 -1 L 1.5 -8.359375 C 1.5 -8.910156 1.585938 -9.546875 1.765625 -10.265625 C 1.941406 -10.992188 2.21875 -11.84375 2.59375 -12.8125 L 5.015625 -19.125 C 5.117188 -19.445312 5.285156 -19.679688 5.515625 -19.828125 C 5.753906 -19.972656 6.0625 -20.046875 6.4375 -20.046875 L 13.921875 -20.046875 C 14.273438 -20.046875 14.566406 -19.972656 14.796875 -19.828125 C 15.023438 -19.679688 15.195312 -19.445312 15.3125 -19.125 L 17.734375 -12.8125 C 18.109375 -11.84375 18.382812 -10.992188 18.5625 -10.265625 C 18.738281 -9.546875 18.828125 -8.910156 18.828125 -8.359375 L 18.828125 -1 C 18.828125 -0.644531 18.742188 -0.390625 18.578125 -0.234375 C 18.421875 -0.078125 18.164062 0 17.8125 0 L 13.609375 0 C 13.242188 0 12.972656 -0.078125 12.796875 -0.234375 C 12.617188 -0.390625 12.53125 -0.644531 12.53125 -1 L 12.53125 -4.90625 L 7.59375 -4.90625 Z M 7.59375 -1 "/></g></g></g><g fill="#7843e6" fill-opacity="1"><g transform="translate(216.207083, 237.302216)"><g><path d="M 11.390625 0 L 6.875 0 C 6.519531 0 6.265625 -0.078125 6.109375 -0.234375 C 5.953125 -0.390625 5.875 -0.644531 5.875 -1 L 5.875 -14.671875 L 1.78125 -14.671875 C 1.425781 -14.671875 1.171875 -14.75 1.015625 -14.90625 C 0.859375 -15.0625 0.78125 -15.316406 0.78125 -15.671875 L 0.78125 -19.046875 C 0.78125 -19.398438 0.859375 -19.65625 1.015625 -19.8125 C 1.171875 -19.96875 1.425781 -20.046875 1.78125 -20.046875 L 16.484375 -20.046875 C 16.835938 -20.046875 17.09375 -19.96875 17.25 -19.8125 C 17.40625 -19.65625 17.484375 -19.398438 17.484375 -19.046875 L 17.484375 -15.671875 C 17.484375 -15.316406 17.40625 -15.0625 17.25 -14.90625 C 17.09375 -14.75 16.835938 -14.671875 16.484375 -14.671875 L 12.390625 -14.671875 L 12.390625 -1 C 12.390625 -0.644531 12.3125 -0.390625 12.15625 -0.234375 C 12 -0.078125 11.742188 0 11.390625 0 Z M 11.390625 0 "/></g></g></g><g fill="#7843e6" fill-opacity="1"><g transform="translate(234.473262, 237.302216)"><g><path d="M 15.84375 0 L 2.921875 0 C 2.566406 0 2.3125 -0.078125 2.15625 -0.234375 C 2 -0.390625 1.921875 -0.644531 1.921875 -1 L 1.921875 -19.046875 C 1.921875 -19.398438 2 -19.65625 2.15625 -19.8125 C 2.3125 -19.96875 2.566406 -20.046875 2.921875 -20.046875 L 15.84375 -20.046875 C 16.195312 -20.046875 16.453125 -19.96875 16.609375 -19.8125 C 16.765625 -19.65625 16.84375 -19.398438 16.84375 -19.046875 L 16.84375 -15.78125 C 16.84375 -15.4375 16.765625 -15.179688 16.609375 -15.015625 C 16.453125 -14.859375 16.195312 -14.78125 15.84375 -14.78125 L 8.15625 -14.78125 L 8.15625 -12.640625 L 13.59375 -12.640625 C 13.9375 -12.640625 14.1875 -12.5625 14.34375 -12.40625 C 14.507812 -12.25 14.59375 -11.992188 14.59375 -11.640625 L 14.59375 -8.65625 C 14.59375 -8.300781 14.507812 -8.046875 14.34375 -7.890625 C 14.1875 -7.734375 13.9375 -7.65625 13.59375 -7.65625 L 8.15625 -7.65625 L 8.15625 -5.265625 L 15.84375 -5.265625 C 16.195312 -5.265625 16.453125 -5.1875 16.609375 -5.03125 C 16.765625 -4.875 16.84375 -4.617188 16.84375 -4.265625 L 16.84375 -1 C 16.84375 -0.644531 16.765625 -0.390625 16.609375 -0.234375 C 16.453125 -0.078125 16.195312 0 15.84375 0 Z M 15.84375 0 "/></g></g></g></svg>