<svg xmlns="http://www.w3.org/2000/svg" xmlns:xlink="http://www.w3.org/1999/xlink" width="377" zoomAndPan="magnify" viewBox="0 0 283.5 36.750001" height="49" preserveAspectRatio="xMidYMid meet" version="1.0"><defs><g/></defs><g fill="#ff00ff" fill-opacity="1"><g transform="translate(28.31252, 25.170273)"><g><path d="M 4.828125 -9.671875 L 4.828125 0 L 1.609375 0 L 1.609375 -16.109375 L 4.828125 -16.109375 L 11.28125 -4.03125 L 17.71875 -16.109375 L 20.953125 -16.109375 L 20.953125 0 L 17.71875 0 L 17.71875 -9.671875 L 12.890625 0 L 9.671875 0 Z M 4.828125 -9.671875 "/></g></g></g><g fill="#ff00ff" fill-opacity="1"><g transform="translate(55.261506, 25.170273)"><g><path d="M 8.0625 -7.546875 L 1.609375 -16.109375 L 5.640625 -16.109375 L 9.671875 -10.75 L 13.703125 -16.109375 L 17.71875 -16.109375 L 11.28125 -7.578125 L 11.28125 0 L 8.0625 0 Z M 8.0625 -7.546875 "/></g></g></g><g fill="#ff00ff" fill-opacity="1"><g transform="translate(78.986962, 25.170273)"><g/></g></g><g fill="#ff00ff" fill-opacity="1"><g transform="translate(96.265354, 25.170273)"><g><path d="M 4.828125 0 L 1.609375 0 L 1.609375 -16.109375 L 12.890625 -16.109375 C 14.234375 -16.109375 15.375 -15.640625 16.3125 -14.703125 C 17.25 -13.765625 17.71875 -12.625 17.71875 -11.28125 C 17.71875 -9.9375 17.25 -8.796875 16.3125 -7.859375 C 15.375 -6.921875 14.234375 -6.453125 12.890625 -6.453125 L 8.859375 -6.453125 L 8.859375 -9.671875 L 12.890625 -9.671875 C 13.347656 -9.671875 13.726562 -9.820312 14.03125 -10.125 C 14.34375 -10.4375 14.5 -10.820312 14.5 -11.28125 C 14.5 -11.726562 14.34375 -12.109375 14.03125 -12.421875 C 13.726562 -12.734375 13.347656 -12.890625 12.890625 -12.890625 L 4.828125 -12.890625 Z M 4.828125 0 "/></g></g></g><g fill="#ff00ff" fill-opacity="1"><g transform="translate(119.990812, 25.170273)"><g><path d="M 12.5625 0 L 7.25 -9.671875 L 12.890625 -9.671875 C 13.347656 -9.671875 13.726562 -9.820312 14.03125 -10.125 C 14.34375 -10.4375 14.5 -10.820312 14.5 -11.28125 C 14.5 -11.726562 14.34375 -12.109375 14.03125 -12.421875 C 13.726562 -12.734375 13.347656 -12.890625 12.890625 -12.890625 L 4.828125 -12.890625 L 4.828125 0 L 1.609375 0 L 1.609375 -16.109375 L 12.890625 -16.109375 C 14.234375 -16.109375 15.375 -15.640625 16.3125 -14.703125 C 17.25 -13.765625 17.71875 -12.625 17.71875 -11.28125 C 17.71875 -9.9375 17.25 -8.796875 16.3125 -7.859375 C 15.375 -6.921875 14.234375 -6.453125 12.890625 -6.453125 L 12.1875 -6.453125 L 15.765625 0 Z M 12.5625 0 "/></g></g></g><g fill="#ff00ff" fill-opacity="1"><g transform="translate(143.71627, 25.170273)"><g><path d="M 9.671875 0 C 7.429688 0 5.523438 -0.78125 3.953125 -2.34375 C 2.390625 -3.914062 1.609375 -5.820312 1.609375 -8.0625 C 1.609375 -10.289062 2.390625 -12.1875 3.953125 -13.75 C 5.523438 -15.320312 7.429688 -16.109375 9.671875 -16.109375 C 11.898438 -16.109375 13.796875 -15.320312 15.359375 -13.75 C 16.929688 -12.1875 17.71875 -10.289062 17.71875 -8.0625 C 17.71875 -5.820312 16.929688 -3.914062 15.359375 -2.34375 C 13.796875 -0.78125 11.898438 0 9.671875 0 Z M 9.671875 -3.21875 C 11.015625 -3.21875 12.15625 -3.6875 13.09375 -4.625 C 14.03125 -5.570312 14.5 -6.71875 14.5 -8.0625 C 14.5 -9.40625 14.03125 -10.546875 13.09375 -11.484375 C 12.15625 -12.421875 11.015625 -12.890625 9.671875 -12.890625 C 8.328125 -12.890625 7.179688 -12.421875 6.234375 -11.484375 C 5.296875 -10.546875 4.828125 -9.40625 4.828125 -8.0625 C 4.828125 -6.71875 5.296875 -5.570312 6.234375 -4.625 C 7.179688 -3.6875 8.328125 -3.21875 9.671875 -3.21875 Z M 9.671875 -3.21875 "/></g></g></g><g fill="#ff00ff" fill-opacity="1"><g transform="translate(167.44172, 25.170273)"><g><path d="M 8.0625 -16.109375 L 11.28125 -16.109375 L 11.28125 0 C 11.28125 1.34375 10.804688 2.484375 9.859375 3.421875 C 8.921875 4.359375 7.785156 4.828125 6.453125 4.828125 C 5.109375 4.828125 3.960938 4.359375 3.015625 3.421875 C 2.078125 2.484375 1.609375 1.34375 1.609375 0 L 4.828125 0 C 4.828125 0.457031 4.984375 0.835938 5.296875 1.140625 C 5.609375 1.453125 5.992188 1.609375 6.453125 1.609375 C 6.898438 1.609375 7.28125 1.453125 7.59375 1.140625 C 7.90625 0.835938 8.0625 0.457031 8.0625 0 Z M 8.0625 -16.109375 "/></g></g></g><g fill="#ff00ff" fill-opacity="1"><g transform="translate(184.720108, 25.170273)"><g><path d="M 17.71875 -6.453125 L 8.859375 -6.453125 L 8.859375 -9.671875 L 17.71875 -9.671875 Z M 17.71875 -16.109375 L 17.71875 -12.890625 L 4.828125 -12.890625 L 4.828125 -3.21875 L 17.71875 -3.21875 L 17.71875 0 L 1.609375 0 L 1.609375 -16.109375 Z M 17.71875 -16.109375 "/></g></g></g><g fill="#ff00ff" fill-opacity="1"><g transform="translate(208.445558, 25.170273)"><g><path d="M 9.671875 -3.21875 L 17.71875 -3.21875 L 17.71875 0 L 9.671875 0 C 7.429688 0 5.523438 -0.78125 3.953125 -2.34375 C 2.390625 -3.914062 1.609375 -5.820312 1.609375 -8.0625 C 1.609375 -10.289062 2.390625 -12.1875 3.953125 -13.75 C 5.523438 -15.320312 7.429688 -16.109375 9.671875 -16.109375 L 17.71875 -16.109375 L 17.71875 -12.890625 L 9.671875 -12.890625 C 8.328125 -12.890625 7.179688 -12.421875 6.234375 -11.484375 C 5.296875 -10.546875 4.828125 -9.40625 4.828125 -8.0625 C 4.828125 -6.71875 5.296875 -5.570312 6.234375 -4.625 C 7.179688 -3.6875 8.328125 -3.21875 9.671875 -3.21875 Z M 9.671875 -3.21875 "/></g></g></g><g fill="#ff00ff" fill-opacity="1"><g transform="translate(232.171007, 25.170273)"><g><path d="M 11.28125 -12.890625 L 11.28125 0 L 8.0625 0 L 8.0625 -12.890625 L 1.609375 -12.890625 L 1.609375 -16.109375 L 17.71875 -16.109375 L 17.71875 -12.890625 Z M 11.28125 -12.890625 "/></g></g></g><g fill="#00ffff" fill-opacity="1"><g transform="translate(31.453625, 25.895454)"><g><path d="M 4.828125 -9.671875 L 4.828125 0 L 1.609375 0 L 1.609375 -16.109375 L 4.828125 -16.109375 L 11.28125 -4.03125 L 17.71875 -16.109375 L 20.953125 -16.109375 L 20.953125 0 L 17.71875 0 L 17.71875 -9.671875 L 12.890625 0 L 9.671875 0 Z M 4.828125 -9.671875 "/></g></g></g><g fill="#00ffff" fill-opacity="1"><g transform="translate(58.402611, 25.895454)"><g><path d="M 8.0625 -7.546875 L 1.609375 -16.109375 L 5.640625 -16.109375 L 9.671875 -10.75 L 13.703125 -16.109375 L 17.71875 -16.109375 L 11.28125 -7.578125 L 11.28125 0 L 8.0625 0 Z M 8.0625 -7.546875 "/></g></g></g><g fill="#00ffff" fill-opacity="1"><g transform="translate(82.128067, 25.895454)"><g/></g></g><g fill="#00ffff" fill-opacity="1"><g transform="translate(99.406459, 25.895454)"><g><path d="M 4.828125 0 L 1.609375 0 L 1.609375 -16.109375 L 12.890625 -16.109375 C 14.234375 -16.109375 15.375 -15.640625 16.3125 -14.703125 C 17.25 -13.765625 17.71875 -12.625 17.71875 -11.28125 C 17.71875 -9.9375 17.25 -8.796875 16.3125 -7.859375 C 15.375 -6.921875 14.234375 -6.453125 12.890625 -6.453125 L 8.859375 -6.453125 L 8.859375 -9.671875 L 12.890625 -9.671875 C 13.347656 -9.671875 13.726562 -9.820312 14.03125 -10.125 C 14.34375 -10.4375 14.5 -10.820312 14.5 -11.28125 C 14.5 -11.726562 14.34375 -12.109375 14.03125 -12.421875 C 13.726562 -12.734375 13.347656 -12.890625 12.890625 -12.890625 L 4.828125 -12.890625 Z M 4.828125 0 "/></g></g></g><g fill="#00ffff" fill-opacity="1"><g transform="translate(123.131917, 25.895454)"><g><path d="M 12.5625 0 L 7.25 -9.671875 L 12.890625 -9.671875 C 13.347656 -9.671875 13.726562 -9.820312 14.03125 -10.125 C 14.34375 -10.4375 14.5 -10.820312 14.5 -11.28125 C 14.5 -11.726562 14.34375 -12.109375 14.03125 -12.421875 C 13.726562 -12.734375 13.347656 -12.890625 12.890625 -12.890625 L 4.828125 -12.890625 L 4.828125 0 L 1.609375 0 L 1.609375 -16.109375 L 12.890625 -16.109375 C 14.234375 -16.109375 15.375 -15.640625 16.3125 -14.703125 C 17.25 -13.765625 17.71875 -12.625 17.71875 -11.28125 C 17.71875 -9.9375 17.25 -8.796875 16.3125 -7.859375 C 15.375 -6.921875 14.234375 -6.453125 12.890625 -6.453125 L 12.1875 -6.453125 L 15.765625 0 Z M 12.5625 0 "/></g></g></g><g fill="#00ffff" fill-opacity="1"><g transform="translate(146.857376, 25.895454)"><g><path d="M 9.671875 0 C 7.429688 0 5.523438 -0.78125 3.953125 -2.34375 C 2.390625 -3.914062 1.609375 -5.820312 1.609375 -8.0625 C 1.609375 -10.289062 2.390625 -12.1875 3.953125 -13.75 C 5.523438 -15.320312 7.429688 -16.109375 9.671875 -16.109375 C 11.898438 -16.109375 13.796875 -15.320312 15.359375 -13.75 C 16.929688 -12.1875 17.71875 -10.289062 17.71875 -8.0625 C 17.71875 -5.820312 16.929688 -3.914062 15.359375 -2.34375 C 13.796875 -0.78125 11.898438 0 9.671875 0 Z M 9.671875 -3.21875 C 11.015625 -3.21875 12.15625 -3.6875 13.09375 -4.625 C 14.03125 -5.570312 14.5 -6.71875 14.5 -8.0625 C 14.5 -9.40625 14.03125 -10.546875 13.09375 -11.484375 C 12.15625 -12.421875 11.015625 -12.890625 9.671875 -12.890625 C 8.328125 -12.890625 7.179688 -12.421875 6.234375 -11.484375 C 5.296875 -10.546875 4.828125 -9.40625 4.828125 -8.0625 C 4.828125 -6.71875 5.296875 -5.570312 6.234375 -4.625 C 7.179688 -3.6875 8.328125 -3.21875 9.671875 -3.21875 Z M 9.671875 -3.21875 "/></g></g></g><g fill="#00ffff" fill-opacity="1"><g transform="translate(170.582825, 25.895454)"><g><path d="M 8.0625 -16.109375 L 11.28125 -16.109375 L 11.28125 0 C 11.28125 1.34375 10.804688 2.484375 9.859375 3.421875 C 8.921875 4.359375 7.785156 4.828125 6.453125 4.828125 C 5.109375 4.828125 3.960938 4.359375 3.015625 3.421875 C 2.078125 2.484375 1.609375 1.34375 1.609375 0 L 4.828125 0 C 4.828125 0.457031 4.984375 0.835938 5.296875 1.140625 C 5.609375 1.453125 5.992188 1.609375 6.453125 1.609375 C 6.898438 1.609375 7.28125 1.453125 7.59375 1.140625 C 7.90625 0.835938 8.0625 0.457031 8.0625 0 Z M 8.0625 -16.109375 "/></g></g></g><g fill="#00ffff" fill-opacity="1"><g transform="translate(187.861214, 25.895454)"><g><path d="M 17.71875 -6.453125 L 8.859375 -6.453125 L 8.859375 -9.671875 L 17.71875 -9.671875 Z M 17.71875 -16.109375 L 17.71875 -12.890625 L 4.828125 -12.890625 L 4.828125 -3.21875 L 17.71875 -3.21875 L 17.71875 0 L 1.609375 0 L 1.609375 -16.109375 Z M 17.71875 -16.109375 "/></g></g></g><g fill="#00ffff" fill-opacity="1"><g transform="translate(211.586663, 25.895454)"><g><path d="M 9.671875 -3.21875 L 17.71875 -3.21875 L 17.71875 0 L 9.671875 0 C 7.429688 0 5.523438 -0.78125 3.953125 -2.34375 C 2.390625 -3.914062 1.609375 -5.820312 1.609375 -8.0625 C 1.609375 -10.289062 2.390625 -12.1875 3.953125 -13.75 C 5.523438 -15.320312 7.429688 -16.109375 9.671875 -16.109375 L 17.71875 -16.109375 L 17.71875 -12.890625 L 9.671875 -12.890625 C 8.328125 -12.890625 7.179688 -12.421875 6.234375 -11.484375 C 5.296875 -10.546875 4.828125 -9.40625 4.828125 -8.0625 C 4.828125 -6.71875 5.296875 -5.570312 6.234375 -4.625 C 7.179688 -3.6875 8.328125 -3.21875 9.671875 -3.21875 Z M 9.671875 -3.21875 "/></g></g></g><g fill="#00ffff" fill-opacity="1"><g transform="translate(235.312112, 25.895454)"><g><path d="M 11.28125 -12.890625 L 11.28125 0 L 8.0625 0 L 8.0625 -12.890625 L 1.609375 -12.890625 L 1.609375 -16.109375 L 17.71875 -16.109375 L 17.71875 -12.890625 Z M 11.28125 -12.890625 "/></g></g></g><g fill="#ffffff" fill-opacity="1"><g transform="translate(29.883072, 25.532863)"><g><path d="M 4.828125 -9.671875 L 4.828125 0 L 1.609375 0 L 1.609375 -16.109375 L 4.828125 -16.109375 L 11.28125 -4.03125 L 17.71875 -16.109375 L 20.953125 -16.109375 L 20.953125 0 L 17.71875 0 L 17.71875 -9.671875 L 12.890625 0 L 9.671875 0 Z M 4.828125 -9.671875 "/></g></g></g><g fill="#ffffff" fill-opacity="1"><g transform="translate(56.832059, 25.532863)"><g><path d="M 8.0625 -7.546875 L 1.609375 -16.109375 L 5.640625 -16.109375 L 9.671875 -10.75 L 13.703125 -16.109375 L 17.71875 -16.109375 L 11.28125 -7.578125 L 11.28125 0 L 8.0625 0 Z M 8.0625 -7.546875 "/></g></g></g><g fill="#ffffff" fill-opacity="1"><g transform="translate(80.557514, 25.532863)"><g/></g></g><g fill="#ffffff" fill-opacity="1"><g transform="translate(97.835907, 25.532863)"><g><path d="M 4.828125 0 L 1.609375 0 L 1.609375 -16.109375 L 12.890625 -16.109375 C 14.234375 -16.109375 15.375 -15.640625 16.3125 -14.703125 C 17.25 -13.765625 17.71875 -12.625 17.71875 -11.28125 C 17.71875 -9.9375 17.25 -8.796875 16.3125 -7.859375 C 15.375 -6.921875 14.234375 -6.453125 12.890625 -6.453125 L 8.859375 -6.453125 L 8.859375 -9.671875 L 12.890625 -9.671875 C 13.347656 -9.671875 13.726562 -9.820312 14.03125 -10.125 C 14.34375 -10.4375 14.5 -10.820312 14.5 -11.28125 C 14.5 -11.726562 14.34375 -12.109375 14.03125 -12.421875 C 13.726562 -12.734375 13.347656 -12.890625 12.890625 -12.890625 L 4.828125 -12.890625 Z M 4.828125 0 "/></g></g></g><g fill="#ffffff" fill-opacity="1"><g transform="translate(121.561365, 25.532863)"><g><path d="M 12.5625 0 L 7.25 -9.671875 L 12.890625 -9.671875 C 13.347656 -9.671875 13.726562 -9.820312 14.03125 -10.125 C 14.34375 -10.4375 14.5 -10.820312 14.5 -11.28125 C 14.5 -11.726562 14.34375 -12.109375 14.03125 -12.421875 C 13.726562 -12.734375 13.347656 -12.890625 12.890625 -12.890625 L 4.828125 -12.890625 L 4.828125 0 L 1.609375 0 L 1.609375 -16.109375 L 12.890625 -16.109375 C 14.234375 -16.109375 15.375 -15.640625 16.3125 -14.703125 C 17.25 -13.765625 17.71875 -12.625 17.71875 -11.28125 C 17.71875 -9.9375 17.25 -8.796875 16.3125 -7.859375 C 15.375 -6.921875 14.234375 -6.453125 12.890625 -6.453125 L 12.1875 -6.453125 L 15.765625 0 Z M 12.5625 0 "/></g></g></g><g fill="#ffffff" fill-opacity="1"><g transform="translate(145.286823, 25.532863)"><g><path d="M 9.671875 0 C 7.429688 0 5.523438 -0.78125 3.953125 -2.34375 C 2.390625 -3.914062 1.609375 -5.820312 1.609375 -8.0625 C 1.609375 -10.289062 2.390625 -12.1875 3.953125 -13.75 C 5.523438 -15.320312 7.429688 -16.109375 9.671875 -16.109375 C 11.898438 -16.109375 13.796875 -15.320312 15.359375 -13.75 C 16.929688 -12.1875 17.71875 -10.289062 17.71875 -8.0625 C 17.71875 -5.820312 16.929688 -3.914062 15.359375 -2.34375 C 13.796875 -0.78125 11.898438 0 9.671875 0 Z M 9.671875 -3.21875 C 11.015625 -3.21875 12.15625 -3.6875 13.09375 -4.625 C 14.03125 -5.570312 14.5 -6.71875 14.5 -8.0625 C 14.5 -9.40625 14.03125 -10.546875 13.09375 -11.484375 C 12.15625 -12.421875 11.015625 -12.890625 9.671875 -12.890625 C 8.328125 -12.890625 7.179688 -12.421875 6.234375 -11.484375 C 5.296875 -10.546875 4.828125 -9.40625 4.828125 -8.0625 C 4.828125 -6.71875 5.296875 -5.570312 6.234375 -4.625 C 7.179688 -3.6875 8.328125 -3.21875 9.671875 -3.21875 Z M 9.671875 -3.21875 "/></g></g></g><g fill="#ffffff" fill-opacity="1"><g transform="translate(169.012272, 25.532863)"><g><path d="M 8.0625 -16.109375 L 11.28125 -16.109375 L 11.28125 0 C 11.28125 1.34375 10.804688 2.484375 9.859375 3.421875 C 8.921875 4.359375 7.785156 4.828125 6.453125 4.828125 C 5.109375 4.828125 3.960938 4.359375 3.015625 3.421875 C 2.078125 2.484375 1.609375 1.34375 1.609375 0 L 4.828125 0 C 4.828125 0.457031 4.984375 0.835938 5.296875 1.140625 C 5.609375 1.453125 5.992188 1.609375 6.453125 1.609375 C 6.898438 1.609375 7.28125 1.453125 7.59375 1.140625 C 7.90625 0.835938 8.0625 0.457031 8.0625 0 Z M 8.0625 -16.109375 "/></g></g></g><g fill="#ffffff" fill-opacity="1"><g transform="translate(186.290661, 25.532863)"><g><path d="M 17.71875 -6.453125 L 8.859375 -6.453125 L 8.859375 -9.671875 L 17.71875 -9.671875 Z M 17.71875 -16.109375 L 17.71875 -12.890625 L 4.828125 -12.890625 L 4.828125 -3.21875 L 17.71875 -3.21875 L 17.71875 0 L 1.609375 0 L 1.609375 -16.109375 Z M 17.71875 -16.109375 "/></g></g></g><g fill="#ffffff" fill-opacity="1"><g transform="translate(210.01611, 25.532863)"><g><path d="M 9.671875 -3.21875 L 17.71875 -3.21875 L 17.71875 0 L 9.671875 0 C 7.429688 0 5.523438 -0.78125 3.953125 -2.34375 C 2.390625 -3.914062 1.609375 -5.820312 1.609375 -8.0625 C 1.609375 -10.289062 2.390625 -12.1875 3.953125 -13.75 C 5.523438 -15.320312 7.429688 -16.109375 9.671875 -16.109375 L 17.71875 -16.109375 L 17.71875 -12.890625 L 9.671875 -12.890625 C 8.328125 -12.890625 7.179688 -12.421875 6.234375 -11.484375 C 5.296875 -10.546875 4.828125 -9.40625 4.828125 -8.0625 C 4.828125 -6.71875 5.296875 -5.570312 6.234375 -4.625 C 7.179688 -3.6875 8.328125 -3.21875 9.671875 -3.21875 Z M 9.671875 -3.21875 "/></g></g></g><g fill="#ffffff" fill-opacity="1"><g transform="translate(233.74156, 25.532863)"><g><path d="M 11.28125 -12.890625 L 11.28125 0 L 8.0625 0 L 8.0625 -12.890625 L 1.609375 -12.890625 L 1.609375 -16.109375 L 17.71875 -16.109375 L 17.71875 -12.890625 Z M 11.28125 -12.890625 "/></g></g></g></svg>